<svg width="40" height="40" viewBox="0 0 40 40" fill="none" xmlns="http://www.w3.org/2000/svg">
<rect width="40" height="40" rx="8" fill="url(#paint0_linear_605_78)"/>
<path d="M20 32C26.6274 32 32 26.6274 32 20C32 13.3726 26.6274 8 20 8C13.3726 8 8 13.3726 8 20C8 26.6274 13.3726 32 20 32Z" stroke="white" stroke-width="2" stroke-linecap="round" stroke-linejoin="round"/>
<path d="M14 9.61249L20 20" stroke="white" stroke-width="2" stroke-linecap="round" stroke-linejoin="round"/>
<path d="M14 30.3875L20 20" stroke="white" stroke-width="2" stroke-linecap="round" stroke-linejoin="round"/>
<path d="M32 20H20" stroke="white" stroke-width="2" stroke-linecap="round" stroke-linejoin="round"/>
<path d="M18.575 8.08749C20.8377 9.10145 22.7312 10.7907 23.9957 12.9236C25.2602 15.0564 25.8337 17.5283 25.6375 20" stroke="white" stroke-width="2" stroke-linecap="round" stroke-linejoin="round"/>
<path d="M10.3875 27.2C10.1331 24.7312 10.6504 22.2442 11.8683 20.0817C13.0861 17.9191 14.9445 16.1874 17.1875 15.125" stroke="white" stroke-width="2" stroke-linecap="round" stroke-linejoin="round"/>
<path d="M31.0375 24.725C29.0275 26.1783 26.6165 26.9731 24.1363 26.9999C21.6561 27.0268 19.2285 26.2844 17.1875 24.875" stroke="white" stroke-width="2" stroke-linecap="round" stroke-linejoin="round"/>
<defs>
<linearGradient id="paint0_linear_605_78" x1="20" y1="0" x2="20" y2="40" gradientUnits="userSpaceOnUse">
<stop stop-color="#3A536B"/>
<stop offset="1" stop-color="#7B96B2"/>
</linearGradient>
</defs>
</svg>

